<svg width="236.562" height="50" viewBox="0 0 317 67" fill="none" xmlns="http://www.w3.org/2000/svg">
<g clip-path="url(#clip0_248_184)">
<path d="M309.875 0.837402H6.70002C3.46225 0.837402 0.837524 3.46213 0.837524 6.6999V60.2999C0.837524 63.5377 3.46225 66.1624 6.70002 66.1624H309.875C313.113 66.1624 315.738 63.5377 315.738 60.2999V6.6999C315.738 3.46213 313.113 0.837402 309.875 0.837402Z" fill="#4E8F03"/>
<mask id="mask0_248_184" style="mask-type:luminance" maskUnits="userSpaceOnUse" x="19" y="15" width="36" height="37">
<path d="M54.1001 16.75V16.25H53.6001H20.1001H19.6001V16.75V50.25V50.75H20.1001H53.6001H54.1001V50.25V16.75Z" fill="white" stroke="white"/>
</mask>
<g mask="url(#mask0_248_184)">
<path d="M53.1176 30.3657L53.0434 29.9546H52.6256H36.8501H36.3501V30.4546V36.9338V37.4338H36.8501H45.2386C44.7785 39.1353 43.7378 40.5738 42.2441 41.5738L42.0223 41.7224V41.9893V46.192V46.6921H42.5223H47.9356H48.1307L48.2742 46.5599C51.5566 43.5379 53.4301 39.104 53.4301 33.8808C53.4301 32.663 53.3209 31.4912 53.1176 30.3657Z" fill="#4285F4" stroke="#385616"/>
<path d="M48.2745 46.5595L48.7083 46.1591L48.242 45.7971L42.8287 41.5944L42.5436 41.3731L42.2438 41.574C40.8342 42.5185 39.0145 43.0881 36.8501 43.0881C32.7199 43.0881 29.2069 40.2964 27.952 36.5248L27.8382 36.1826H27.4776H21.8816H21.3816V36.6826V41.0224V41.1411L21.435 41.2472C24.2728 46.8835 30.1061 50.7501 36.8501 50.7501C41.4872 50.7501 45.403 49.21 48.2745 46.5595Z" fill="#34A853" stroke="#385616"/>
<path d="M27.784 37.0777L28.064 36.8605L27.952 36.5244C27.6327 35.5667 27.4524 34.5465 27.4524 33.5C27.4524 32.4536 27.6327 31.4334 27.952 30.4757L27.9776 30.3987V30.3175V25.9778V25.4778H27.4776H21.8816H21.5731L21.4347 25.7536C20.2667 28.082 19.6001 30.7167 19.6001 33.5C19.6001 36.2833 20.2667 38.9181 21.4347 41.2465L21.7074 41.7901L22.188 41.4174L27.784 37.0777Z" fill="#FBBC04" stroke="#385616"/>
<path d="M42.9076 26.2782L43.2609 26.616L43.6066 26.2703L48.4109 21.4661L48.7771 21.0998L48.3982 20.7467C45.4084 17.961 41.4962 16.25 36.8501 16.25C30.1061 16.25 24.2728 20.1166 21.435 25.7529L21.2499 26.1206L21.5752 26.3729L27.1712 30.7126L27.7291 31.1453L27.952 30.4753C29.2069 26.7038 32.7199 23.912 36.8501 23.912C39.188 23.912 41.27 24.7125 42.9076 26.2782Z" fill="#E94235" stroke="#385616"/>
</g>
<path d="M81.8918 36.4478H84.7544C84.6628 37.5394 84.3574 38.5125 83.8384 39.3675C83.3193 40.2148 82.5903 40.8828 81.6515 41.3713C80.7125 41.8599 79.5713 42.1041 78.2278 42.1041C77.1973 42.1041 76.2699 41.9208 75.4454 41.5545C74.621 41.1805 73.915 40.6537 73.3271 39.9743C72.7393 39.2874 72.2891 38.4591 71.976 37.4896C71.6707 36.5203 71.5181 35.4362 71.5181 34.2378V32.8524C71.5181 31.6539 71.6745 30.57 71.9874 29.6005C72.308 28.631 72.7661 27.8028 73.3616 27.1158C73.9569 26.4212 74.6706 25.8906 75.5027 25.5243C76.3424 25.1578 77.2851 24.9747 78.3308 24.9747C79.6591 24.9747 80.7811 25.2189 81.6972 25.7075C82.6133 26.1959 83.3231 26.8715 83.827 27.7341C84.3383 28.5967 84.6514 29.5853 84.7658 30.6997H81.9034C81.827 29.9821 81.659 29.3677 81.3996 28.8562C81.1476 28.3448 80.7736 27.9555 80.2775 27.6884C79.7812 27.4135 79.1324 27.2761 78.3308 27.2761C77.6744 27.2761 77.1018 27.3982 76.6134 27.6425C76.1248 27.8868 75.7165 28.2456 75.3882 28.7188C75.0599 29.1922 74.8118 29.7761 74.644 30.4707C74.4837 31.1578 74.4034 31.944 74.4034 32.8294V34.2378C74.4034 35.0774 74.476 35.8409 74.621 36.5278C74.7738 37.2072 75.0027 37.7911 75.3081 38.2797C75.621 38.7683 76.018 39.1462 76.4988 39.4134C76.9797 39.6805 77.5561 39.814 78.2278 39.814C79.0447 39.814 79.705 39.6844 80.2086 39.4247C80.7202 39.1653 81.1056 38.7874 81.3652 38.2913C81.6324 37.7874 81.8079 37.1729 81.8918 36.4478ZM86.5636 35.818V35.5547C86.5636 34.6615 86.6934 33.8333 86.9529 33.07C87.2125 32.299 87.5865 31.631 88.0749 31.0662C88.5712 30.4936 89.1742 30.0509 89.8841 29.7379C90.6017 29.4173 91.4109 29.257 92.3115 29.257C93.2199 29.257 94.0291 29.4173 94.7389 29.7379C95.4565 30.0509 96.0633 30.4936 96.5596 31.0662C97.0558 31.631 97.4337 32.299 97.6931 33.07C97.9527 33.8333 98.0824 34.6615 98.0824 35.5547V35.818C98.0824 36.7111 97.9527 37.5394 97.6931 38.3027C97.4337 39.066 97.0558 39.7339 96.5596 40.3065C96.0633 40.8713 95.4604 41.314 94.7505 41.6346C94.0406 41.9476 93.2353 42.1041 92.3345 42.1041C91.4261 42.1041 90.6131 41.9476 89.8955 41.6346C89.1856 41.314 88.5826 40.8713 88.0865 40.3065C87.5902 39.7339 87.2125 39.066 86.9529 38.3027C86.6934 37.5394 86.5636 36.7111 86.5636 35.818ZM89.323 35.5547V35.818C89.323 36.3752 89.3803 36.9019 89.4948 37.398C89.6092 37.8943 89.7886 38.3293 90.033 38.7033C90.2772 39.0775 90.5903 39.3713 90.9719 39.585C91.3536 39.7988 91.8077 39.9056 92.3345 39.9056C92.8458 39.9056 93.2887 39.7988 93.6627 39.585C94.0443 39.3713 94.3574 39.0775 94.6016 38.7033C94.8458 38.3293 95.0252 37.8943 95.1398 37.398C95.2619 36.9019 95.323 36.3752 95.323 35.818V35.5547C95.323 35.0049 95.2619 34.4858 95.1398 33.9974C95.0252 33.5013 94.8421 33.0623 94.5902 32.6805C94.3458 32.299 94.0329 32.0011 93.6512 31.7874C93.2771 31.5661 92.8306 31.4554 92.3115 31.4554C91.7924 31.4554 91.3422 31.5661 90.9605 31.7874C90.5864 32.0011 90.2772 32.299 90.033 32.6805C89.7886 33.0623 89.6092 33.5013 89.4948 33.9974C89.3803 34.4858 89.323 35.0049 89.323 35.5547ZM103.132 32.131V41.8751H100.372V29.486H102.972L103.132 32.131ZM102.64 35.2225L101.746 35.2111C101.754 34.3332 101.876 33.5279 102.113 32.7951C102.357 32.0623 102.693 31.4325 103.121 30.9059C103.556 30.3791 104.075 29.9746 104.678 29.6922C105.281 29.402 105.953 29.257 106.693 29.257C107.288 29.257 107.827 29.3409 108.307 29.5089C108.796 29.6692 109.212 29.9325 109.555 30.299C109.907 30.6653 110.174 31.1424 110.357 31.7303C110.54 32.3103 110.632 33.0241 110.632 33.8714V41.8751H107.861V33.8599C107.861 33.2646 107.773 32.7951 107.598 32.4515C107.43 32.1005 107.181 31.8524 106.853 31.7073C106.533 31.5546 106.132 31.4784 105.651 31.4784C105.178 31.4784 104.754 31.5775 104.38 31.776C104.006 31.9745 103.689 32.2455 103.43 32.5891C103.178 32.9324 102.983 33.3294 102.846 33.7798C102.708 34.2302 102.64 34.7111 102.64 35.2225ZM119.128 29.486V31.5012H112.143V29.486H119.128ZM114.159 26.4517H116.918V38.4516C116.918 38.8331 116.972 39.1271 117.078 39.3331C117.193 39.5316 117.349 39.6653 117.548 39.7339C117.746 39.8026 117.979 39.837 118.246 39.837C118.437 39.837 118.62 39.8256 118.796 39.8026C118.971 39.7797 119.113 39.7569 119.22 39.7339L119.231 41.8408C119.002 41.9094 118.735 41.9706 118.429 42.024C118.132 42.0774 117.788 42.1041 117.399 42.1041C116.765 42.1041 116.204 41.9934 115.716 41.7721C115.227 41.5431 114.846 41.1728 114.571 40.6614C114.296 40.15 114.159 39.4706 114.159 38.6233V26.4517ZM124.212 29.486V41.8751H121.441V29.486H124.212ZM121.258 26.2341C121.258 25.8144 121.395 25.467 121.67 25.1921C121.952 24.9097 122.342 24.7685 122.838 24.7685C123.326 24.7685 123.712 24.9097 123.994 25.1921C124.277 25.467 124.418 25.8144 124.418 26.2341C124.418 26.6463 124.277 26.9899 123.994 27.2646C123.712 27.5394 123.326 27.6768 122.838 27.6768C122.342 27.6768 121.952 27.5394 121.67 27.2646C121.395 26.9899 121.258 26.6463 121.258 26.2341ZM129.971 32.131V41.8751H127.212V29.486H129.811L129.971 32.131ZM129.479 35.2225L128.586 35.2111C128.593 34.3332 128.716 33.5279 128.952 32.7951C129.197 32.0623 129.532 31.4325 129.96 30.9059C130.395 30.3791 130.914 29.9746 131.517 29.6922C132.12 29.402 132.792 29.257 133.532 29.257C134.128 29.257 134.666 29.3409 135.147 29.5089C135.635 29.6692 136.051 29.9325 136.395 30.299C136.746 30.6653 137.013 31.1424 137.196 31.7303C137.38 32.3103 137.471 33.0241 137.471 33.8714V41.8751H134.7V33.8599C134.7 33.2646 134.612 32.7951 134.437 32.4515C134.269 32.1005 134.021 31.8524 133.693 31.7073C133.372 31.5546 132.971 31.4784 132.49 31.4784C132.017 31.4784 131.593 31.5775 131.219 31.776C130.845 31.9745 130.528 32.2455 130.269 32.5891C130.017 32.9324 129.822 33.3294 129.685 33.7798C129.548 34.2302 129.479 34.7111 129.479 35.2225ZM147.742 38.9552V29.486H150.513V41.8751H147.902L147.742 38.9552ZM148.131 36.3791L149.059 36.3561C149.059 37.1881 148.967 37.9553 148.784 38.6576C148.601 39.3522 148.318 39.9591 147.937 40.4781C147.555 40.9897 147.066 41.3904 146.471 41.6805C145.875 41.9629 145.162 42.1041 144.33 42.1041C143.727 42.1041 143.173 42.0163 142.67 41.8408C142.166 41.6652 141.731 41.3942 141.364 41.0277C141.005 40.6614 140.727 40.1844 140.528 39.5964C140.33 39.0087 140.231 38.3065 140.231 37.4896V29.486H142.99V37.5126C142.99 37.963 143.044 38.3408 143.15 38.6462C143.257 38.9438 143.402 39.1844 143.586 39.3675C143.769 39.5507 143.982 39.6805 144.227 39.7569C144.471 39.8331 144.73 39.8713 145.005 39.8713C145.792 39.8713 146.41 39.7187 146.86 39.4134C147.318 39.1003 147.643 38.6805 147.834 38.1537C148.032 37.6271 148.131 37.0355 148.131 36.3791ZM158.803 42.1041C157.887 42.1041 157.059 41.9553 156.318 41.6575C155.585 41.3522 154.959 40.9286 154.44 40.3865C153.929 39.8447 153.536 39.2072 153.261 38.4743C152.986 37.7415 152.849 36.9514 152.849 36.1042V35.6461C152.849 34.6768 152.99 33.7989 153.272 33.0127C153.555 32.2264 153.948 31.5546 154.452 30.9975C154.956 30.4325 155.551 30.0012 156.238 29.7035C156.925 29.4059 157.669 29.257 158.471 29.257C159.356 29.257 160.131 29.4059 160.795 29.7035C161.459 30.0012 162.009 30.4211 162.444 30.9631C162.887 31.4975 163.215 32.1348 163.429 32.8753C163.65 33.6157 163.761 34.4324 163.761 35.3255V36.5049H154.188V34.524H161.036V34.3064C161.02 33.8103 160.921 33.3447 160.738 32.9097C160.562 32.4745 160.291 32.1234 159.925 31.8563C159.559 31.5889 159.07 31.4554 158.459 31.4554C158.001 31.4554 157.593 31.5546 157.234 31.7531C156.883 31.944 156.589 32.2226 156.352 32.5891C156.116 32.9554 155.933 33.3981 155.803 33.9172C155.681 34.4287 155.62 35.0049 155.62 35.6461V36.1042C155.62 36.6463 155.692 37.1499 155.837 37.6156C155.99 38.0737 156.211 38.4743 156.501 38.8179C156.791 39.1614 157.143 39.4324 157.555 39.6309C157.967 39.8217 158.436 39.9172 158.963 39.9172C159.627 39.9172 160.219 39.7835 160.738 39.5164C161.257 39.2492 161.707 38.8713 162.089 38.3827L163.543 39.7912C163.276 40.1805 162.929 40.5545 162.501 40.9133C162.074 41.2644 161.551 41.5506 160.933 41.7721C160.322 41.9934 159.612 42.1041 158.803 42.1041ZM175.12 39.1271L177.982 29.486H179.746L179.264 32.3715L176.379 41.8751H174.798L175.12 39.1271ZM173.436 29.486L175.669 39.1728L175.852 41.8751H174.09L170.735 29.486H173.436ZM182.424 39.0584L184.588 29.486H187.28L183.935 41.8751H182.173L182.424 39.0584ZM180.042 29.486L182.872 39.0125L183.227 41.8751H181.645L178.726 32.3599L178.245 29.486H180.042ZM192.111 29.486V41.8751H189.34V29.486H192.111ZM189.158 26.2341C189.158 25.8144 189.295 25.467 189.57 25.1921C189.851 24.9097 190.242 24.7685 190.737 24.7685C191.226 24.7685 191.612 24.9097 191.893 25.1921C192.176 25.467 192.317 25.8144 192.317 26.2341C192.317 26.6463 192.176 26.9899 191.893 27.2646C191.612 27.5394 191.226 27.6768 190.737 27.6768C190.242 27.6768 189.851 27.5394 189.57 27.2646C189.295 26.9899 189.158 26.6463 189.158 26.2341ZM200.814 29.486V31.5012H193.829V29.486H200.814ZM195.844 26.4517H198.603V38.4516C198.603 38.8331 198.657 39.1271 198.764 39.3331C198.878 39.5316 199.035 39.6653 199.233 39.7339C199.432 39.8026 199.665 39.837 199.931 39.837C200.122 39.837 200.307 39.8256 200.481 39.8026C200.657 39.7797 200.799 39.7569 200.905 39.7339L200.916 41.8408C200.687 41.9094 200.421 41.9706 200.116 42.024C199.818 42.0774 199.474 42.1041 199.084 42.1041C198.451 42.1041 197.89 41.9934 197.402 41.7721C196.913 41.5431 196.531 41.1728 196.256 40.6614C195.982 40.15 195.844 39.4706 195.844 38.6233V26.4517ZM205.668 24.2876V41.8751H202.92V24.2876H205.668ZM205.188 35.2225L204.295 35.2111C204.302 34.3562 204.42 33.5661 204.65 32.8408C204.886 32.1157 205.214 31.4859 205.635 30.9516C206.062 30.4096 206.573 29.9937 207.169 29.7035C207.764 29.4059 208.424 29.257 209.149 29.257C209.76 29.257 210.31 29.3409 210.799 29.5089C211.295 29.6767 211.722 29.9478 212.08 30.3218C212.439 30.6883 212.71 31.1692 212.894 31.7646C213.085 32.3524 213.179 33.07 213.179 33.9172V41.8751H210.409V33.8944C210.409 33.2989 210.321 32.8256 210.146 32.4745C209.978 32.1234 209.73 31.8715 209.402 31.7187C209.074 31.5584 208.672 31.4784 208.199 31.4784C207.703 31.4784 207.265 31.5775 206.883 31.776C206.507 31.9745 206.196 32.2455 205.943 32.5891C205.692 32.9324 205.501 33.3294 205.37 33.7798C205.248 34.2302 205.188 34.7111 205.188 35.2225ZM234.889 33.3562V39.7224C234.652 40.0354 234.282 40.379 233.778 40.753C233.282 41.1193 232.622 41.4362 231.798 41.7034C230.974 41.9706 229.947 42.1041 228.718 42.1041C227.673 42.1041 226.715 41.9285 225.844 41.5774C224.973 41.2187 224.222 40.6957 223.587 40.0086C222.963 39.3217 222.477 38.4859 222.134 37.5012C221.79 36.5087 221.619 35.3789 221.619 34.1118V32.9554C221.619 31.696 221.775 30.5737 222.088 29.589C222.408 28.5967 222.867 27.757 223.462 27.0699C224.058 26.383 224.775 25.8639 225.614 25.5127C226.462 25.1541 227.42 24.9747 228.489 24.9747C229.855 24.9747 230.984 25.2037 231.879 25.6616C232.778 26.112 233.473 26.738 233.962 27.5394C234.45 28.3409 234.76 29.257 234.889 30.2874H232.073C231.981 29.7074 231.802 29.1883 231.534 28.7302C231.276 28.2723 230.901 27.9135 230.413 27.654C229.931 27.3869 229.306 27.2532 228.534 27.2532C227.87 27.2532 227.286 27.3791 226.783 27.6311C226.279 27.883 225.859 28.2532 225.524 28.7418C225.195 29.2302 224.948 29.8256 224.778 30.528C224.611 31.2303 224.527 32.0318 224.527 32.9324V34.1118C224.527 35.0279 224.623 35.8409 224.814 36.5508C225.011 37.2606 225.294 37.86 225.661 38.3484C226.035 38.837 226.489 39.2072 227.023 39.4591C227.557 39.7035 228.16 39.8256 228.832 39.8256C229.488 39.8256 230.026 39.7721 230.447 39.6653C230.867 39.5507 231.199 39.4172 231.443 39.2644C231.694 39.1041 231.889 38.9516 232.026 38.8065V35.4974H228.557V33.3562H234.889ZM237.271 35.818V35.5547C237.271 34.6615 237.401 33.8333 237.661 33.07C237.92 32.299 238.294 31.631 238.783 31.0662C239.279 30.4936 239.882 30.0509 240.592 29.7379C241.309 29.4173 242.118 29.257 243.019 29.257C243.927 29.257 244.736 29.4173 245.446 29.7379C246.165 30.0509 246.771 30.4936 247.267 31.0662C247.763 31.631 248.141 32.299 248.401 33.07C248.661 33.8333 248.79 34.6615 248.79 35.5547V35.818C248.79 36.7111 248.661 37.5394 248.401 38.3027C248.141 39.066 247.763 39.7339 247.267 40.3065C246.771 40.8713 246.168 41.314 245.458 41.6346C244.748 41.9476 243.942 42.1041 243.043 42.1041C242.133 42.1041 241.321 41.9476 240.604 41.6346C239.894 41.314 239.291 40.8713 238.793 40.3065C238.297 39.7339 237.92 39.066 237.661 38.3027C237.401 37.5394 237.271 36.7111 237.271 35.818ZM240.031 35.5547V35.818C240.031 36.3752 240.088 36.9019 240.202 37.398C240.317 37.8943 240.497 38.3293 240.741 38.7033C240.984 39.0775 241.297 39.3713 241.679 39.585C242.061 39.7988 242.515 39.9056 243.043 39.9056C243.553 39.9056 243.996 39.7988 244.371 39.585C244.751 39.3713 245.064 39.0775 245.309 38.7033C245.553 38.3293 245.733 37.8943 245.847 37.398C245.969 36.9019 246.031 36.3752 246.031 35.818V35.5547C246.031 35.0049 245.969 34.4858 245.847 33.9974C245.733 33.5013 245.55 33.0623 245.297 32.6805C245.053 32.299 244.741 32.0011 244.359 31.7874C243.984 31.5661 243.538 31.4554 243.019 31.4554C242.5 31.4554 242.049 31.5661 241.667 31.7874C241.294 32.0011 240.984 32.299 240.741 32.6805C240.497 33.0623 240.317 33.5013 240.202 33.9974C240.088 34.4858 240.031 35.0049 240.031 35.5547ZM250.577 35.818V35.5547C250.577 34.6615 250.706 33.8333 250.965 33.07C251.225 32.299 251.598 31.631 252.088 31.0662C252.583 30.4936 253.186 30.0509 253.897 29.7379C254.613 29.4173 255.424 29.257 256.324 29.257C257.233 29.257 258.042 29.4173 258.752 29.7379C259.469 30.0509 260.076 30.4936 260.571 31.0662C261.069 31.631 261.446 32.299 261.705 33.07C261.965 33.8333 262.096 34.6615 262.096 35.5547V35.818C262.096 36.7111 261.965 37.5394 261.705 38.3027C261.446 39.066 261.069 39.7339 260.571 40.3065C260.076 40.8713 259.473 41.314 258.762 41.6346C258.054 41.9476 257.248 42.1041 256.347 42.1041C255.439 42.1041 254.625 41.9476 253.908 41.6346C253.198 41.314 252.595 40.8713 252.099 40.3065C251.604 39.7339 251.225 39.066 250.965 38.3027C250.706 37.5394 250.577 36.7111 250.577 35.818ZM253.335 35.5547V35.818C253.335 36.3752 253.392 36.9019 253.508 37.398C253.622 37.8943 253.801 38.3293 254.046 38.7033C254.29 39.0775 254.603 39.3713 254.984 39.585C255.366 39.7988 255.821 39.9056 256.347 39.9056C256.858 39.9056 257.302 39.7988 257.675 39.585C258.057 39.3713 258.37 39.0775 258.613 38.7033C258.858 38.3293 259.037 37.8943 259.153 37.398C259.275 36.9019 259.335 36.3752 259.335 35.818V35.5547C259.335 35.0049 259.275 34.4858 259.153 33.9974C259.037 33.5013 258.855 33.0623 258.603 32.6805C258.359 32.299 258.046 32.0011 257.664 31.7874C257.29 31.5661 256.843 31.4554 256.324 31.4554C255.804 31.4554 255.356 31.5661 254.974 31.7874C254.598 32.0011 254.29 32.299 254.046 32.6805C253.801 33.0623 253.622 33.5013 253.508 33.9974C253.392 34.4858 253.335 35.0049 253.335 35.5547ZM272.343 29.486H274.851V41.5316C274.851 42.6461 274.615 43.5926 274.141 44.3712C273.667 45.1499 273.007 45.7415 272.159 46.146C271.313 46.5582 270.332 46.7643 269.218 46.7643C268.744 46.7643 268.218 46.6956 267.637 46.5582C267.064 46.4209 266.508 46.1994 265.965 45.8941C265.431 45.5964 264.985 45.2033 264.625 44.7147L265.92 43.0888C266.362 43.6156 266.851 44.001 267.385 44.2452C267.92 44.4896 268.481 44.6117 269.069 44.6117C269.702 44.6117 270.24 44.4935 270.683 44.2568C271.132 44.0278 271.481 43.6881 271.725 43.2377C271.968 42.7873 272.09 42.2377 272.09 41.5888V32.2912L272.343 29.486ZM263.926 35.818V35.5774C263.926 34.6386 264.042 33.7837 264.27 33.0127C264.499 32.234 264.828 31.5661 265.255 31.0089C265.684 30.4441 266.201 30.0127 266.813 29.7149C267.424 29.4096 268.114 29.257 268.884 29.257C269.687 29.257 270.37 29.402 270.935 29.6922C271.508 29.9821 271.985 30.3982 272.365 30.9402C272.747 31.4745 273.045 32.1157 273.26 32.8638C273.481 33.6043 273.645 34.4287 273.752 35.3371V36.1042C273.652 36.9896 273.484 37.7988 273.248 38.5316C273.012 39.2644 272.698 39.8981 272.308 40.4324C271.92 40.9667 271.439 41.379 270.866 41.6691C270.302 41.959 269.633 42.1041 268.863 42.1041C268.106 42.1041 267.424 41.9476 266.813 41.6346C266.21 41.3217 265.69 40.8828 265.255 40.3179C264.828 39.753 264.499 39.0889 264.27 38.3256C264.042 37.5546 263.926 36.7186 263.926 35.818ZM266.687 35.5774V35.818C266.687 36.3828 266.74 36.9096 266.848 37.398C266.962 37.8866 267.132 38.3179 267.362 38.6919C267.598 39.0584 267.896 39.3484 268.255 39.5621C268.621 39.7683 269.054 39.8713 269.549 39.8713C270.198 39.8713 270.729 39.7339 271.141 39.4591C271.561 39.1844 271.881 38.814 272.102 38.3484C272.332 37.8752 272.492 37.3484 272.583 36.7684V34.6959C272.538 34.2455 272.442 33.8256 272.296 33.4363C272.159 33.047 271.973 32.7073 271.735 32.4172C271.499 32.1196 271.201 31.8906 270.843 31.7303C270.484 31.5623 270.06 31.4784 269.571 31.4784C269.075 31.4784 268.645 31.5852 268.278 31.799C267.911 32.0127 267.61 32.3065 267.374 32.6805C267.144 33.0545 266.973 33.4897 266.858 33.9859C266.744 34.4822 266.687 35.0126 266.687 35.5774ZM280.666 24.2876V41.8751H277.896V24.2876H280.666ZM289.152 42.1041C288.236 42.1041 287.408 41.9553 286.668 41.6575C285.934 41.3522 285.308 40.9286 284.789 40.3865C284.278 39.8447 283.884 39.2072 283.609 38.4743C283.335 37.7415 283.197 36.9514 283.197 36.1042V35.6461C283.197 34.6768 283.34 33.7989 283.621 33.0127C283.904 32.2264 284.296 31.5546 284.8 30.9975C285.305 30.4325 285.901 30.0012 286.588 29.7035C287.274 29.4059 288.018 29.257 288.82 29.257C289.705 29.257 290.48 29.4059 291.144 29.7035C291.809 30.0012 292.358 30.4211 292.793 30.9631C293.236 31.4975 293.564 32.1348 293.778 32.8753C293.999 33.6157 294.11 34.4324 294.11 35.3255V36.5049H284.537V34.524H291.385V34.3064C291.37 33.8103 291.271 33.3447 291.087 32.9097C290.911 32.4745 290.641 32.1234 290.274 31.8563C289.907 31.5889 289.418 31.4554 288.809 31.4554C288.35 31.4554 287.943 31.5546 287.582 31.7531C287.232 31.944 286.938 32.2226 286.701 32.5891C286.465 32.9554 286.281 33.3981 286.152 33.9172C286.03 34.4287 285.969 35.0049 285.969 35.6461V36.1042C285.969 36.6463 286.042 37.1499 286.186 37.6156C286.34 38.0737 286.561 38.4743 286.851 38.8179C287.14 39.1614 287.492 39.4324 287.904 39.6309C288.316 39.8217 288.785 39.9172 289.313 39.9172C289.976 39.9172 290.567 39.7835 291.087 39.5164C291.606 39.2492 292.056 38.8713 292.438 38.3827L293.892 39.7912C293.626 40.1805 293.278 40.5545 292.85 40.9133C292.423 41.2644 291.901 41.5506 291.281 41.7721C290.671 41.9934 289.961 42.1041 289.152 42.1041Z" fill="white"/>
<path d="M309.875 0.837402H6.70002C3.46225 0.837402 0.837524 3.46213 0.837524 6.6999V60.2999C0.837524 63.5377 3.46225 66.1624 6.70002 66.1624H309.875C313.113 66.1624 315.738 63.5377 315.738 60.2999V6.6999C315.738 3.46213 313.113 0.837402 309.875 0.837402Z" stroke="#747775"/>
</g>
<defs>
<clipPath id="clip0_248_184">
<rect width="316.575" height="67" fill="white"/>
</clipPath>
</defs>
</svg>
