<svg width="36" height="36" viewBox="0 0 36 36" fill="none" xmlns="http://www.w3.org/2000/svg">
<path fill-rule="evenodd" clip-rule="evenodd" d="M20.7544 5.54373C22.5064 3.79174 25.3469 3.79174 27.0989 5.54373L30.3463 8.79114C32.0983 10.5431 32.0983 13.3837 30.3463 15.1356L14.5161 30.9658C14.2357 31.2463 13.8553 31.4038 13.4587 31.4038H5.98162C5.15573 31.4038 4.48621 30.7343 4.48621 29.9084V22.4313C4.48621 22.0347 4.64376 21.6543 4.9242 21.3739L20.7544 5.54373ZM24.984 7.65857C24.4 7.07457 23.4532 7.07457 22.8692 7.65857L21.5552 8.97256L26.9175 14.3348L28.2314 13.0208C28.8154 12.4368 28.8154 11.49 28.2315 10.906L24.984 7.65857ZM24.8026 16.4496L19.4404 11.0874L7.47704 23.0507V28.413H12.8393L24.8026 16.4496Z" fill="white"/>
</svg>
