<svg width="20" height="18" viewBox="0 0 20 18" fill="none" xmlns="http://www.w3.org/2000/svg">
<path d="M5.55556 15.75C4.66667 15.75 3.77778 14.9625 3.33333 14.625C1.11111 13.05 0.444444 12.4875 0 12.15V16.875C0 17.4962 0.497569 18 1.11111 18H10C10.6135 18 11.1111 17.4962 11.1111 16.875V12.15C10.6667 12.4875 10 13.05 7.77778 14.625C7.33333 14.9625 6.44444 15.75 5.55556 15.75ZM10 9H1.11111C0.497569 9 0 9.50379 0 10.125V10.6875C0.888889 11.3625 0.777778 11.3625 4 13.725C4.33333 13.95 5 14.625 5.55556 14.625C6.11111 14.625 6.77778 13.95 7.11111 13.8375C10.3333 11.475 10.2222 11.475 11.1111 10.8V10.125C11.1111 9.50379 10.6135 9 10 9ZM18.8889 5.625H7.77778C7.16424 5.625 6.66667 6.12879 6.66667 6.75V7.875H10C11.1531 7.875 12.1038 8.76867 12.2122 9.90773L12.2222 9.9V14.625H18.8889C19.5024 14.625 20 14.1212 20 13.5V6.75C20 6.12879 19.5024 5.625 18.8889 5.625ZM17.7778 10.125H15.5556V7.875H17.7778V10.125ZM5.55556 6.75C5.55556 5.50934 6.55243 4.5 7.77778 4.5H15.5556V1.125C15.5556 0.503789 15.058 0 14.4444 0H3.33333C2.71979 0 2.22222 0.503789 2.22222 1.125V7.875H5.55556V6.75Z" fill="#4E8F03"/>
</svg>
