<svg width="20" height="23" viewBox="0 0 20 23" fill="none" xmlns="http://www.w3.org/2000/svg">
<path d="M17.8571 9.84375H16.7857V6.67969C16.7857 2.99707 13.7411 0 10 0C6.25893 0 3.21429 2.99707 3.21429 6.67969V9.84375H2.14286C0.959822 9.84375 0 10.7886 0 11.9531V20.3906C0 21.5552 0.959822 22.5 2.14286 22.5H17.8571C19.0402 22.5 20 21.5552 20 20.3906V11.9531C20 10.7886 19.0402 9.84375 17.8571 9.84375ZM13.2143 9.84375H6.78571V6.67969C6.78571 4.93506 8.22768 3.51562 10 3.51562C11.7723 3.51562 13.2143 4.93506 13.2143 6.67969V9.84375Z" fill="#4E8F03"/>
</svg>
